# xmcd
#
# Track frame offsets: 
#        150
#        18075
#        36347
#        54272
#
# Disc length: 963 seconds
#
# Revision: 1
# Processed by: cddbd v1.5.2PL0 Copyright (c) Steve Scherf et al.
# Submitted via: ExactAudioCopy v1.0b3
#
DISCID=2503c104
DTITLE=m.o.v.e - 雷鳴-Out Of Kontrol- (Single)
DYEAR=2005
DGENRE=J-Pop
TTITLE0=雷鳴-Out Of Kontrol-
TTITLE1=Girl (You Wanna Move)
TTITLE2=雷鳴-Out Of Kontrol- (Instrumental)
TTITLE3=Girl (You Wanna Move) (Instrumental)
EXTD=YEAR: 2005
EXTT0=
EXTT1=
EXTT2=
EXTT3=
PLAYORDER=
